<svg height="300" width="700" xmlns="http://www.w3.org/2000/svg"><path d="m0 0c32.15-.13 64.24 1.15 96.36 2.54 30.88 1.31 61.47 1.19 92.34-.14 203.83-8.77 203.83-8.77 300.62 37.48 34.21 31.43 43.18 89.19 45.06 133.1 1.97 54.94-2.61 124.01-41.87 166.81-47.83 48.4-148.65 42.58-210.62 42.96-32.15.13-64.24-1.15-96.36-2.54-30.88-1.31-61.46-1.19-92.34.14-203.83 8.77-203.83 8.77-300.62-37.48-34.21-31.43-43.18-89.19-45.06-133.11-1.96-54.93 2.61-124 41.87-166.8 47.84-48.4 148.65-42.58 210.62-42.96z" fill="#fefefc" transform="translate(209.053549 -41.374624)"/><path d="m0 0h3.19c3.42.01 6.85.05 10.27.08 2.42.01 4.84.02 7.25.03 14.83.09 29.64.33 44.46.8 10.8.33 21.58.48 32.38.55l7.35.06c.81 0 1.63.01 2.47.02 1.65.01 3.31.03 4.96.04 4.92.04 9.84.07 14.76.08 3.11.01 6.21.04 9.31.08 1.46.01 2.91.01 4.37.01 8.23-.01 14.88.34 22.07 4.58.81.44 1.61.89 2.45 1.35 7.12 5.04 9.52 11.89 12.48 19.84 3.27 8.24 7.81 12.16 15.8 15.86 11.08 4.62 21.58.88 32.27-3.05.72-.38 1.45-.76 2.2-1.15 3.42-1.63 7.09-1.27 10.8-.85 4.2 1.59 7.09 3.56 10 7 1.75 5.27 2.03 11.07.16 16.36-2.91 5.2-6.55 7.69-12.16 9.64-3.39.5-6.71.56-10.13.56-6.96.04-12.46.07-17.72 5.26-2.32 4.39-1.74 9.37-1.15 14.18 2.23 4.46 5.44 8.72 10 11v2c2.15.99 2.15.99 5 2 .9.34 1.81.68 2.75 1.03.93.34 1.85.68 2.81 1.03.93.34 1.86.68 2.81 1.04 18.81 6.47 41.07.79 58.98-6.12 11.84-4.39 25.79-7.93 38.27-3.79 6.46 3.46 11.7 7.86 14.38 14.81.96 6.77.78 14.1-3 20-5.51 6.43-12.49 10.27-20.89 11.38-9.78.39-18.2-2.74-26.74-7.25-22.57-10.8-42.62-12.71-66.37-5.13-.98.3-1.96.6-2.97.9-9.18 3.22-19.68 9.78-25.14 17.98-1.66 3.94-1.81 7.97-.89 12.12.96 1.36 1.95 2.7 3 4v2c8.82 1.97 15.41-1.25 22.65-5.83 1.1-.71 2.21-1.43 3.35-2.17 1.89-1.16 3.78-2.3 5.68-3.44.77-.47 1.54-.95 2.33-1.43 5.03-2.86 10.36-2.7 15.99-2.13 4.89 2.35 7.81 5.72 11 10 1.66 5 1.57 9.28-.5 14.12-3.14 5.7-7.9 8.04-13.91 9.98-6.02 1.42-12.19 1.29-18.34 1.4-13 .24-24.69 1.62-37 5.87-.88.29-1.76.59-2.67.89-5.45 1.84-10.52 4.03-15.58 6.74-.93.48-1.85.96-2.8 1.46-2.76 1.48-5.48 3-8.2 4.54-.87.49-1.73.98-2.63 1.48-12.75 7.66-25.54 18.23-32.95 31.3-.47.73-.94 1.46-1.42 2.22-.66 0-1.32 0-2 0-.27.58-.54 1.15-.82 1.75-3.28 6.21-12.36 10.63-18.86 12.81-16.17 3.05-33.83-.84-49.91-2.97-3.56-.47-7.13-.93-10.7-1.39-4.97-.64-9.94-1.28-14.9-1.93-7.33-.95-14.65-1.88-21.98-2.78-.89-.1-1.78-.21-2.69-.32-1.7-.21-3.39-.42-5.09-.62-13.63-1.67-27.22-3.53-40.78-5.72-3.2-.52-6.39-.99-9.61-1.38-10.24-1.26-18.26-2.89-25.09-11.06-4.47-6.81-6.49-13.28-7.95-21.27-.2-1.06-.41-2.13-.62-3.23-.68-3.63-1.34-7.26-2-10.89-.26-1.38-.51-2.76-.76-4.13-2.74-14.89-5.38-29.76-7.27-44.78-.63-4.95-1.5-9.73-2.66-14.59-3.08-13.71-1.6-23.79 5.78-35.57 1.56-2.44 3.16-4.85 4.77-7.25 1-1.48 1.99-2.98 2.97-4.47 5.08-7.7 10.31-15.3 15.52-22.92 4.16-6.09 8.28-12.21 12.35-18.36 2.81-4.24 5.71-8.4 8.66-12.54 1.77-2.59 3.38-5.26 5.01-7.95 10.23-16.13 24.89-24.01 43.79-23.77z" fill="#f0bf0d" transform="translate(318.164063 19.671875)"/><path d="m0 0h4.87c4.33.01 8.66.03 12.99.06 3.6.02 7.2.03 10.8.05 22.09.06 44.18.27 66.26.66.55.01.55.01 3.35.05 7.01.13 14.02.3 21.03.51.51.01.51.01 3.09.09 3.04.09 6.08.2 9.12.32.91.03 1.83.06 2.77.09 6.12.25 10.15.8 14.83 5.06 2.5 3.24 2.71 5.99 2.66 10-1.18 6.11-4.58 11.79-7.47 17.25-.39.73-.78 1.47-1.18 2.22-3.32 6.2-6.94 12.18-10.65 18.15-3.78 6.1-7.29 12.33-10.75 18.62-3.01 5.48-6.14 10.87-9.42 16.2-.59.98-1.18 1.95-1.79 2.96-2.05 3.36-4.12 6.7-6.21 10.04-.39.62-.78 1.24-1.18 1.88-13.56 21.64-13.56 21.64-23.82 25.12-.71.27-1.41.54-2.14.81-.65.25-1.31.5-1.99.75-.66.25-1.32.5-2.01.75-16.75 6.14-39.62 1.04-56.86-1.31-1.3-.18-2.6-.36-3.95-.54-17.76-2.44-35.45-5.29-53.11-8.41-10.52-1.85-21.05-3.46-31.66-4.76-.87-.11-1.74-.22-2.64-.34-1.75-.22-3.5-.43-5.25-.63-6.6-.87-11.69-2.45-16.39-7.45-1.82-5.21-1.19-10.31 1.12-15.3 1.19-1.99 2.32-3.84 3.88-5.57h2c.33-.99.66-1.98 1-3 .33-.99.66-1.98 1-3h2c.7-1.65 1.35-3.33 2-5 1.22-2.44 2.54-4.68 4-7h2c.16-.5.16-.5 1-3 .16-.5.16-.5 1-3h2c.22-.81.45-1.61.68-2.44 1.55-4.2 3.79-6.95 6.59-10.4 2.09-2.61 3.89-5.37 5.73-8.16.93-1.21 1.87-2.42 2.81-3.63 3.27-4.3 5.9-8.9 8.58-13.58 1.76-3.05 3.5-5.98 5.61-8.79h2c.68-1.33 1.35-2.66 2-4 1.58-1.92 1.58-1.92 3.37-3.75.29-.31.29-.31 1.78-1.86 1.85-1.39 1.85-1.39 5.85-1.39 0-.66 0-1.32 0-2 9.13-3.77 19.02-3.41 28.7-3.33z" fill="#fbd740" transform="translate(328.703125 30.671875)"/><path d="m0 0h3c.31 2.5.31 2.5 0 5-.66 0-1.32 0-2 0v3.44 3.56c-.33.16-.33.16-2 1-.42 8.59-.42 8.59 1 12h2v2c.58.08.58.08 3.5.5.58.08.58.08 3.5.5v2c1.92.38 1.92.38 4.6.56.97.08 1.93.15 2.93.23 1.02.07 2.04.14 3.09.21 6.13.43 11.59.85 17.38 3 3.19.52 6.38.94 9.59 1.34.39.11.39.11 2.41.66v3c3.01.03 5.83-.1 8.81-.38 1.65-.13 3.31-.27 4.96-.39.74-.07 1.48-.14 2.24-.2 1.99-.03 1.99-.03 4.99.97 2.2.21 4.4.37 6.6.5 1.3.08 2.59.16 3.92.25 2.06.13 4.12.25 6.18.37 1.99.13 3.98.25 5.96.38 1.19.07 2.39.14 3.61.22 2.73.28 2.73.28 3.73 1.28 1.18.14 2.35.29 3.56.44.57.09.57.09 3.44.56v2c2.92.3 5.76.47 8.69.56 1.74.08 3.48.15 5.22.23.86.03 1.72.07 2.61.11 3.39.14 6.78.32 10.17.54.52.03.52.03 3.13.18.72.13 1.44.25 2.18.38v2c2.77.27 5.47.42 8.25.5 8.24.23 8.24.23 10.78 1.56 3.27 1.56 6.71.79 10.22.44 2.6-.26 5.13-.43 7.75-.5v2c1.15.08 2.31.16 3.5.25 1.15.25 2.31.5 3.5.75.75 2.81.75 2.81 0 6-4.4 4.52-9.12 6.24-15.37 6.38-.35 0-.35 0-2.13 0-.75-.01-1.51-.01-2.29-.01-7.82-.15-15.53-1.14-23.27-2.18-1.24-.17-2.47-.33-3.75-.5-6.69-.97-12.92-2.12-19.19-4.69 0-.66 0-1.32 0-2-1.96-.1-1.96-.1-4.67.09-.98.06-1.95.12-2.95.19-2.07.14-4.14.29-6.21.44-.98.06-1.96.12-2.97.19-.9.06-1.8.13-2.73.19-2.7-.11-4.12-.84-6.47-2.1-2.69.25-2.69.25-5 1-.16.33-.16.33-1 2-.99 0-1.98 0-3 0-.45 4.09-.05 8.03 1 12 2.94 1 2.94 1 6 1 .29.65.59 1.31.89 1.98.37.67.73 1.33 1.11 2.02 2.15.42 2.15.42 4.79.32.94-.02 1.88-.04 2.85-.07.49-.02.49-.02 2.98-.13 1.96-.06 3.91-.12 5.86-.17.86-.04 1.73-.08 2.62-.11.63.05 1.26.1 1.9.16v2c1.67.34 3.33.67 5 1l1 2c-2.39.42-4.77.51-7.19.66-.6.11-1.2.22-1.81.34 3.87 3.87 10.67 4.08 16 4.31.99-.1 1.98-.2 3-.31.33-.5.33-.5 2-3 1.25-1.69 1.25-1.69 3-3 3.19-.31 3.19-.31 6 0v2c.48-.03.48-.03 2.94-.19 1.01.06 2.02.13 3.06.19.81 2.25.81 2.25 1 5 .14.38.14.38.88 2.31.04.56.08 1.12.12 1.69-2.44.38-2.44.38-5 0 0-.66 0-1.32 0-2-6.22.35-12.78 1.48-18 5-.33.99-.66 1.98-1 3l2 1c-.33.66-.66 1.32-1 2-.66-.29-1.32-.58-2-.88-.66-.04-1.32-.08-2-.12-1.3 5.37-1.3 5.37-1 8 3 1 3 1 6.06.38.97-.13 1.94-.25 2.94-.38.33.5.33.5 2 3 .7.17 1.4.33 2.12.5.62.17 1.24.33 1.88.5v3c-.33.33-.66.66-1 1 1.71-.04 3.42-.16 5.12-.31.98-.08 1.95-.16 2.95-.24 2.93-.45 2.93-.45 5.11-1.47 3.67-1.28 7.09-1.17 10.93-1.07 1.57.02 3.15.04 4.72.06 2.47.04 4.94.09 7.42.15 2.39.04 4.78.07 7.17.1.75.02 1.49.05 2.26.07 2.07.02 2.07.02 5.32-.29.33-.99.66-1.98 1-3 1.99-.37 3.99-.7 6-1 0-.66 0-1.32 0-2 1.72-.96 3.45-1.92 5.19-2.86 2.53-1.59 4.01-3.78 5.81-6.14.72-.35 1.44-.7 2.19-1.06.6-.31 1.19-.62 1.81-.94.35-1.33.69-2.66 1-4h3c.44-1.75.44-1.75.56-4 .13-2.25.13-2.25.44-4h2c0-.66 0-1.32 0-2 2.81-1.31 2.81-1.31 6-2 1.88 1.12 1.88 1.12 3 3v4c-.66 0-1.32 0-2 0-.33.99-.66 1.98-1 3-.33.99-.66 1.98-1 3-.66 0-1.32 0-2 0-.16.82-.33 1.65-.5 2.5-.16.82-.33 1.65-.5 2.5-.66 0-1.32 0-2 0v3c-.66 0-1.32 0-2 0-.56 1.81-.56 1.81-1 4-1 3-1 3-3.44 4.81-2.56 2.19-2.56 2.19-3.31 5.07-2.68 6.7-10.81 9.59-17.11 12.36-13.41 4.77-29.65 1.43-43.45-.18-.79-.09-1.57-.18-2.38-.27-2.27-.27-4.53-.54-6.8-.82-.68-.08-1.36-.16-2.07-.25-3.52-.43-6.97-1.02-10.44-1.72-1.92-.09-3.83-.13-5.75-.12-.96-.01-1.93-.01-2.92-.01-2.33.13-2.33.13-3.33 1.13-.19 2.94-.19 2.94 0 6 2.79 2.79 5.75 2.74 9.51 3.22.76.1 1.51.21 2.3.31 2.43.33 4.87.65 7.31.97 1.59.21 3.18.43 4.77.64 3.94.54 7.87 1.05 11.81 1.56l4.56.6c2.14.28 4.28.55 6.42.83 1.22.16 2.44.31 3.7.48 14.33 1.55 28.81.89 40.81-8.05 2.47-2.13 4.51-4.35 6.5-6.94 2.31-2.62 2.31-2.62 5.5-3.12.93-.17 1.85-.33 2.81-.5 1.19-2.69 1.19-2.69 2-6 1.5-3.38 1.5-3.38 3-6h2c0-.99 0-1.98 0-3h2c.33-.85.66-1.69 1-2.56.33-.81.66-1.61 1-2.44l2 1c.53.23.53.23 3.19 1.38.93.53 1.85 1.07 2.81 1.62-.33.99-.66 1.98-1 3 2.49.66 2.49.66 5.88 1.06 2.05.25 4.09.55 6.12.94.33.66.66 1.32 1 2l2 1c-2.11 1.85-2.11 1.85-5.19 4.06-1 .74-2.01 1.47-3.04 2.23-2.77 1.71-2.77 1.71-5.77 1.71v2c-.99 0-1.98 0-3 0-.06.29-.06.29-.38 1.75-.9 3.25-2.98 4.23-5.62 6.25-.72.91-1.44 1.81-2.19 2.75-.6.74-1.19 1.49-1.81 2.25-.66 0-1.32 0-2 0-.06.52-.06.52-.38 3.12-.69 4.28-1.92 6.53-4.62 9.88-.66 0-1.32 0-2 0-.27.58-.54 1.15-.81 1.75-3.28 6.21-12.36 10.63-18.86 12.81-16.18 3.05-33.84-.84-49.91-2.97-3.57-.47-7.14-.93-10.7-1.39-4.97-.64-9.94-1.28-14.91-1.93-7.32-.95-14.65-1.88-21.98-2.77-.89-.11-1.77-.22-2.69-.33-1.69-.21-3.39-.42-5.09-.62-13.63-1.67-27.22-3.53-40.78-5.72-3.2-.51-6.39-.99-9.61-1.38-9.59-1.18-18.26-2.65-24.66-10.45-1.08-2.69-1.68-5.41-2.25-8.25-1.68-7.68-1.68-7.68-2.75-8.75-.13-1.46-.23-2.92-.31-4.38-.34-3.91-1.13-7.05-2.63-10.67-2.32-6.18-3.11-12.17-3.75-18.7-.12-1.14-.24-2.27-.37-3.44-.77-7.37-1.35-14.74-1.63-22.15-.31-2.66-.31-2.66-2.31-5.66-.49-2.3-.49-2.3-.82-4.96-.12-.97-.25-1.93-.37-2.93-.13-1-.25-2.01-.37-3.05-.25-1.99-.5-3.97-.76-5.96-.1-.88-.21-1.77-.32-2.67-.36-2.43-.36-2.43-.89-4.51-1.49-6.1-.35-12.07 1.53-17.92h2c.82-2.15.82-2.15 1.56-4.94 1.35-4.97 1.35-4.97 2.44-6.06z" fill="#f0bf09" transform="translate(229 117)"/><path d="m0 0c.72.44 1.43.87 2.17 1.32.85 4.66-.4 7.33-3 11.13-.32.48-.32.48-1.96 2.91-.67.98-1.35 1.96-2.04 2.96-1.23 1.86-2.46 3.71-3.69 5.57-.66.98-1.32 1.97-2.01 2.99-1.76 2.62-3.5 5.25-5.23 7.89-4.68 7.09-9.32 14.11-14.68 20.72-1.42 1.87-2.57 3.78-3.7 5.83-1.69 3-1.69 3-3.69 4-.17.5-.17.5-1 3-1.32 0-2.64 0-4 0v2c-5.46 2.91-10.92 4.17-17 5-.77.54-1.53 1.08-2.31 1.63-3.23 1.65-4.54 1.28-8.07.75-2.65-.38-2.65-.38-4.62-.38.12 2.5.12 2.5 1 5-1.94-.31-1.94-.31-4-1v2c2.8.94 4.52 1.13 7.42 1.14h2.61c.9 0 1.79-.01 2.72-.01.88 0 1.76.01 2.67.01 4.94-.01 9.73-.09 14.58-1.14 0-.66 0-1.32 0-2 .82.05 1.65.09 2.5.13.82-.04 1.65-.08 2.5-.13 0-1.32 0-2.64 0-4-.66 0-1.32 0-2 0 .12-2.62.12-2.62 1-5 2.06.57 2.06.57 4 2v2c3.56-.18 3.56-.18 7-1-.33-.99-.66-1.98-1-3-.66 0-1.32 0-2 0 0-.99 0-1.98 0-3 6.23-1.38 6.23-1.38 9 0 .78-1.87.78-1.87 1.5-4.43s.72-2.56 1.5-4.57h2c0-.99 0-1.98 0-3h2c0-.82 0-1.65 0-2.5 0-.82 0-1.65 0-2.5h2c0-.66 0-1.32 0-2h3c.07-.39.07-.39.44-2.37.18-.87.37-1.73.56-2.63.64-.28 1.28-.57 1.94-.87 2.06-1.13 2.06-1.13 3.25-4.88.13-.53.13-.53.81-3.25.33.66.66 1.32 1 2 1.69-.95 3.36-1.95 5-3h2v3c1.67-.28 3.34-.61 5-1-.33.66-.66 1.32-1 2-.66 0-1.32 0-2 0 .33.66.66 1.32 1 2 .29 2.76.18 5.21 0 8-.99.33-1.98.66-3 1-1.02 2-2.02 4-3 6-.66 0-1.32 0-2 0-.35 1.67-.68 3.33-1 5-.99 2.34-1.99 4.68-3 7-1 2.57-1 2.57-1 4 2.37-.62 2.37-.62 5-2l1-2 3-1c.79-2.69 1.44-5.26 2-8 .49-2.38.49-2.38 1-4l1 2c2.03-.29 4.07-.59 6.09-1h1.91c2.47 3.71 2.55 6.7 2 11-1.44 3.19-1.44 3.19-3 6-.17.93-.33 1.86-.5 2.82-.17.72-.33 1.44-.5 2.18-.99.33-1.98.66-3 1-.36 1.33-.7 2.66-1 4-.66 0-1.32 0-2 0-.25.68-.5 1.37-.75 2.07-1.46 3.43-3.43 5.65-5.91 8.38-1.34 1.55-1.34 1.55-2.34 3.55-.66 0-1.32 0-2 0v3c-.66 0-1.32 0-2 0-.15.73-.29 1.45-.44 2.19-.87 4.37-3.07 8.02-6.56 10.81-.63.12-1.25.23-1.89.35-2.76.86-3.65 2.15-5.42 4.4-7.08 8.31-15.88 12.6-26.69 14.25-12.28.89-24.33-.79-36.48-2.45-3.11-.42-6.22-.83-9.34-1.24-2-.26-4-.53-6-.8-.46-.06-.46-.06-2.79-.36-13.05-1.81-13.05-1.81-16.39-5.15-.25-3-.25-3 0-6 2-2 2-2 4.23-2.24 6.55.08 12.86.63 19.33 1.62 1.93.28 3.87.55 5.8.82l2.88.42c36.09 5.09 36.09 5.09 47.76-.62.86-.39 1.72-.79 2.61-1.2 10.82-5.18 10.82-5.18 12.45-9.8.31-.99.62-1.98.94-3 1.5-1.87 1.5-1.87 3-3h2c.56-1.81.56-1.81 1-4 .16-.49.16-.49 1-3h2c0-.99 0-1.98 0-3h2c.16-.82.33-1.65.5-2.5.16-.82.33-1.65.5-2.5h2c.56-1.87.56-1.87 1-4l1-2h2c0-1.32 0-2.64 0-4-.99-.33-1.98-.66-3-1 0-.66 0-1.32 0-2-.99.66-1.98 1.32-3 2-.99 0-1.98 0-3 0v2c-.66 0-1.32 0-2 0-.37 2.09-.45 4.14-.56 6.25-.07.29-.07.29-.44 1.75-.99 0-1.98 0-3 0-.11.75-.21 1.49-.31 2.25-1 3.97-3.28 4.68-6.69 6.75-.68.71-1.36 1.41-2.06 2.13-2.18 2.1-4.16 2.79-6.94 3.87v2c-2 .68-4 1.35-6 2-.33.66-.66 1.32-1 2-2.56.23-5.02.33-7.58.35-.76.01-1.53.03-2.31.04-2.46.05-4.91.08-7.36.11-3.22.05-6.43.1-9.64.16-.74.01-1.48.01-2.23.02-4.09.08-7.18.61-10.88 2.32-3.08.49-3.08.49-6.25.75-1.06.1-2.12.2-3.21.3-.84-.01-1.68-.03-2.54-.05-.33-.66-.66-1.32-1-2h3c0-.99 0-1.98 0-3-1.66-.38-3.33-.71-5-1-.33-.66-.66-1.32-1-2-2.34.33-4.67.66-7 1 0-.66 0-1.32 0-2-.66 0-1.32 0-2 0-.18-2.74.13-5.39 1-8 2.12.38 2.12.38 4 1-.12-.44-.12-.44-.69-2.68-.05-.55-.05-.55-.31-3.32 5.36-4.61 12.05-5.34 19-5v2c2.56.32 2.56.32 5 0-1-3-1-3-3-5 .25-.7.49-1.4.75-2.12.08-.62.16-1.24.25-1.88-2.94-.12-2.94-.12-6 0 0-.66 0-1.32 0-2-3.76.71-6.28 1.24-8.94 4.07-1.06 1.93-1.06 1.93-1.06 2.93-1.81.11-3.63.13-5.44.13-1.01 0-2.02 0-3.06.01-2.5-.14-2.5-.14-3.5-1.14-2.06-.24-4.12-.38-6.19-.52-.6-.16-1.2-.31-1.81-.48-.33-.99-.66-1.98-1-3 1.55-1.54 3.24-1.26 5.37-1.43 1.2-.19 2.4-.37 3.63-.57-2-.93-2-.93-5-2 0-.66 0-1.32 0-2-1.9-.18-1.9-.18-4.53-.09-.93.02-1.87.04-2.84.06-2 .07-3.99.13-5.99.2-.47.01-.47.01-2.85.06-.87.03-1.74.05-2.64.08-.35-.05-.35-.05-2.15-.31-.66-.99-1.32-1.98-2-3-1.03-.2-2.06-.41-3.13-.62-.95-.45-1.89-.91-2.87-1.38-.69-3.05-.6-5.93 0-9 2-2 2-2 3.85-2.25 7.12.06 14.09.85 21.15 1.79 2.11.28 4.22.55 6.32.82 5.44.7 10.87 1.4 16.3 2.13 43.45 5.81 43.45 5.81 62.38-8.49 2.34-2.13 4.16-4.42 6-7 .68-.96 1.37-1.92 2.08-2.91 3.69-5.23 7.25-10.56 10.79-15.9.65-.96 1.29-1.92 1.95-2.9 1.68-2.53 3.32-5.07 4.95-7.63.97-1.49 1.94-2.98 2.92-4.47.45-.72.9-1.45 1.36-2.19 3.25-4.92 3.25-4.92 6.78-5.32z" fill="#eac121" transform="translate(458.832031 124.675781)"/><path d="m0 0h1c.47 3.41.84 6.83 1.21 10.25.26.91.52 1.82.79 2.75 1.95-.22 1.95-.22 4-1 2.4 2.4 2.37 3.35 2.75 6.65.11.92.23 1.84.35 2.8.22 1.94.45 3.89.67 5.83.11.93.23 1.85.35 2.81.1.84.2 1.69.3 2.56.67 2.72 1.86 4.18 3.58 6.35.73 3.06.73 3.06 1.19 6.44.16 1.11.31 2.22.48 3.37.61 5.84.61 5.84.33 8.19-.99-.33-1.98-.66-3-1v3c-.66 0-1.32 0-2 0-.15-2.36.01-4.67.12-7.03-.04-.65-.08-1.3-.12-1.97-.66 0-1.32 0-2 0-.33.82-.66 1.65-1 2.5-.33.82-.66 1.65-1 2.5-.66 0-1.32 0-2 0-.37 3.29-.45 6.56-.56 9.86-.44 3.14-.44 3.14-1.85 5.06-1.59 1.08-1.59 1.08-3.59 1.08v2c-4.16 2.77-8.24 2.42-13.08 2.57-1.64.07-3.28.23-4.92.43.5.33.5.33 3 2-4.5 1.68-9.6.96-14.31.69-.42-.02-.42-.02-2.54-.11-2.05-.11-4.1-.34-6.15-.58 0-.66 0-1.32 0-2l2-1c-6.44-2.13-13.41-2.15-20.12-2.38-12.11-.43-23.99-2.35-35.88-4.62-.41-.08-.41-.08-2.51-.47-2.22-.47-2.22-.47-5.49-1.53 0-.99 0-1.98 0-3 .68-.08 1.36-.16 2.06-.25.64-.25 1.28-.5 1.94-.75-.35-1.18-.7-2.35-1.06-3.56.02-1.14.04-2.27.06-3.44 3.45-.44 6.65-.23 10.12.05.48-.01.48-.01 2.88-.05 0-.99 0-1.98 0-3 2.34.3 4.67.63 7 1 .16-.33.16-.33 1-2 2.74-.39 5.21-.18 8 0v2c2.21.15 2.21.15 5.3.01 1.12-.05 2.25-.09 3.41-.14 1.19-.06 2.38-.12 3.6-.18 1.15-.05 2.3-.1 3.48-.15 15.68-.7 15.68-.7 21.21-1.54 0-.33 0-.66 0-1-.41-.06-.41-.06-2.5-.38-.82-.2-1.65-.41-2.5-.62 0-.99 0-1.98 0-3-2.32-.41-4.66-.75-7-1 0-.33 0-.66 0-1 6.24-.3 12.56-.32 18.75.56 3.25.44 3.25.44 5.25-.56 1.67-.04 3.34-.01 5.01.04.98.02 1.97.05 2.99.07 2.09.05 4.18.12 6.28.19.49.01.49.01 2.98.06.91.02 1.82.05 2.75.08.66-.15 1.31-.29 1.99-.44 0-1.32 0-2.64 0-4-.99.66-1.98 1.32-3 2-1.32 0-2.64 0-4 0-.33-.99-.66-1.98-1-3-.74-.33-1.49-.66-2.25-1-.58-.33-1.16-.66-1.75-1 1.31-1.44 1.31-1.44 3-3-.33-.99-.66-1.98-1-3-2.04.45-4.07.91-6.09 1.43-5.91 1.16-11.97.86-17.97.82-1.36.01-2.71.01-4.07.02-.63 0-.63 0-3.84 0-.58-.01-.58-.01-3.51-.01-.83-.09-1.66-.17-2.52-.26 0-.66 0-1.32 0-2-2.37-.21-2.37-.21-5.73-.16-1.24.01-2.49.02-3.77.04-.67.01-1.34.02-2.03.03-3.55.05-7.1.06-10.65.07-.74.01-1.47.01-2.22.01-45.53.16-45.53.16-65.6-6.99-.99-.33-1.98-.66-3-1-.53-2.95-.53-2.95 0-6 8.04-4.25 20.1-3.54 29.03-4.16 6.05-.46 11.65-1.28 17.47-2.96 6.78-1.91 12.62-2.19 19.59-1.92 2.93.03 5.5-.11 8.39-.45 5.93-.62 11.81-.64 17.77-.61 1.13 0 2.26.01 3.43.01 3.59 0 7.17.01 10.76.03 2.43 0 4.87.01 7.3.01 5.33.01 10.66.03 15.99.04 1.76.01 3.51.01 5.27.01.37-1.66.71-3.33 1-5h2c0-.66 0-1.32 0-2z" fill="#fdfbe3" transform="translate(212 168)"/><path d="m0 0h5.11 10.62c4.51.01 9.03 0 13.54 0h10.52 4.99c7.62-.01 15.16.01 22.75.91 4.45.44 8.91.37 13.38.36h3.08c2.13 0 4.26 0 6.39-.01 3.27 0 6.53 0 9.79.01h6.24 2.94c.91 0 1.81 0 2.75-.01h2.41c2.51-.14 4.85-.61 7.31-1.13 1.77-.11 3.54-.17 5.32-.18.88-.02 1.76-.03 2.67-.05.33.04.33.04 2.01.23v2c2.35-.27 4.68-.61 7-1 4 0 4 0 6.69 2.38 2.31 2.62 2.31 2.62 3.31 4.62 2.86.85 5.73 1.48 8.63 2.12.39.15.39.15 2.37.88v3c-.49.33-.49.33-3 2 .69 2.57.69 2.57 2 5 .66.33 1.32.66 2 1 .79 2.12 1.49 4.27 2.13 6.44.18.59.18.59 1.07 3.56.8 3 .8 3 .8 5h2c.33.66.66 1.32 1 2h3l2-2c.33.33.66.66 1 1-.03.42-.03.42-.2 2.51.07.83.14 1.65.2 2.49 1.73.71 1.73.71 4.19.82.92.04 1.83.08 2.78.12 1 .02 2 .04 3.03.06 1.02.06 2.03.13 3.07.19 8.51.33 15.94-1.31 23.93-4.19.33-.33.66-.66 1-1 1.92-.12 3.84-.17 5.75-.18.53-.01.53-.01 3.18-.05 4.82.36 7.84 1.7 11.07 5.23.99.66 1.98 1.32 3 2 .59 3.12.59 3.12.82 6.88.09 1.23.17 2.47.27 3.74-.08 3.21-.19 4.83-2.09 7.38-.49.17-.49.17-3 1-.23-3.23.02-6.39.19-9.63-.21-3.72-.98-5.41-3.19-8.37-3.99-3.49-7.74-4.44-13.05-4.43-5.39.79-10.34 2.99-15.37 5.02-7.83 3.09-15.73 3.76-23.76.85-11.39-5.19-15.59-13.49-19.82-24.75-1.63-4.2-3.47-6.77-7-9.69-.76-.7-1.52-1.4-2.31-2.12-8.09-5.65-16.27-5.33-25.81-5.35-1.49-.02-2.99-.03-4.48-.05-3.16-.03-6.32-.06-9.48-.07-4.95-.03-9.91-.08-14.86-.13-1.65-.01-3.3-.03-4.95-.05-.81 0-1.62-.01-2.46-.02-2.44-.02-4.88-.05-7.33-.07-10.76-.09-21.51-.3-32.27-.63-15.27-.47-30.54-.67-45.82-.74-2.37-.01-4.74-.03-7.12-.05-3.31-.03-6.63-.04-9.94-.05-.98-.01-1.96-.02-2.97-.03-12.93.04-23.49 4.81-32.95 13.61-3.4 3.62-5.92 7.72-8.51 11.94-1.6 2.59-3.28 5.08-5.05 7.56-2.8 3.96-5.51 7.96-8.19 12-4.32 6.52-8.71 12.98-13.12 19.44-5.17 7.57-10.33 15.15-15.38 22.81-.77 1.16-1.55 2.32-2.33 3.48-6.62 9.93-10.99 18.11-11.39 30.25-.09.75-.18 1.5-.28 2.27-.66 0-1.32 0-2 0-.18-2.54-.23-4.96-.18-7.5.01-.73.01-1.46.02-2.21.17-9.94.17-9.94 1.16-14.29h3c0-.8 0-1.61 0-2.43 0-.85 0-1.7 0-2.57l3-1 1-2h3c0-.99 0-1.98 0-3 1.65-1.68 3.32-3.35 5-5 .17-.49.17-.49 1-3h2c.11-2.62-.07-5.19-.22-7.81.08-.72.15-1.44.22-2.19h3c0-.99 0-1.98 0-3 .81-.45 1.61-.9 2.44-1.37 2.56-1.63 2.56-1.63 3.5-4.13.06-2.5.06-2.5-1.94-5.5-1.99-.68-3.99-1.34-6-2 0-.66 0-1.32 0-2 .83-.14 1.65-.29 2.5-.43.83-.19 1.65-.38 2.5-.57 0-.99 0-1.98 0-3-1.6.31-1.6.31-4 1-4.83.23-9.68.17-14.52.16-.73-.01-1.45-.01-2.2-.01-16.55-.02-33.07-.69-49.6-1.48-3.04-.14-6.09-.28-9.13-.41-2.97-.13-5.95-.27-8.92-.41-1.4-.06-2.8-.12-4.2-.19-15.22-.68-15.22-.68-20.43-1.66 0-.66 0-1.32 0-2-1.25.04-2.51.09-3.81.13-3.93.1-3.93.1-6.19-1.88-1-2.25-1-2.25-1-6.25 1.99-.97 1.99-.97 4.75-1.62.89-.22 1.77-.44 2.68-.67 10.49-2.08 20.84-3.19 31.51-3.77 2.08-.12 4.16-.23 6.24-.36 1.87-.11 3.73-.21 5.6-.31 2.83-.23 5.46-.68 8.22-1.27 12.77-1.08 25.61-1.12 38.41-1.17 1.73-.01 3.45-.02 5.17-.04 2.46-.01 4.91-.02 7.36-.02.74 0 1.48-.01 2.24-.02 4.01.02 7.32.22 10.82 2.25.17 1.01.33 2.02.5 3.07.17.96.33 1.93.5 2.93.83.15 1.65.29 2.5.44.42.09.42.09 2.5.56.63 3.44.63 3.44 1 7l3 2c.23-2.65.23-2.65.07-6.37-.09-2.21-.13-4.42-.07-6.63h2c-.06 1.14-.12 2.27-.18 3.44.06 1.18.12 2.35.18 3.56 2.5.82 2.5.82 5 1v2c3.46-1.19 5.14-2.91 7-6 1.48-3.56 2.75-7.01 3.72-10.74.24-.91.48-1.82.72-2.76.1-.43.1-.43.62-2.59.31-.63.62-1.26.94-1.91h4c-.65-2-1.32-4-2-6 1.88 0 1.88 0 4 1v2h2c0-.99 0-1.98 0-3-1.93-1.06-1.93-1.06-4-2-.33-.66-.66-1.32-1-2h2c0-.66 0-1.32 0-2 2.07-2.18 2.07-2.18 5-4 2.35.27 4.68.62 7 1 3.08-.37 6.11-.87 9-2 0-.66 0-1.32 0-2 12.52-4.42 27.05-3.15 40.18-3.13z" fill="#fdfbde" transform="translate(336.175781 15.867188)"/><path d="m0 0h1c.27 5.68.27 5.68 0 8-2 2-2 2-4.06 2.94-1.94 1.06-1.94 1.06-2.94 4.06 5.65.53 10.34-.94 15-4 2.81-.31 2.81-.31 5 0v2c2.15.2 2.15.2 4.94.25 2.77.21 2.77.21 5.06.75 1.06 2.81 1.06 2.81 1 6 .23.76.45 1.53.69 2.31.1.56.2 1.12.31 1.69-.66.33-1.32.66-2 1-.66-.33-1.32-.66-2-1 0-1.67 0-3.33 0-5-.66 0-1.32 0-2 0 .16.33.16.33 1 2 .15 1.98.22 3.96.25 5.94.03 1.06.05 2.12.08 3.21-.33 2.85-.33 2.85-1.66 4.65-5.89 4.23-13.77 3.71-20.67 3.2-2.29-.56-2.29-.56-4.19-1.19-.93-.27-1.85-.53-2.81-.81-.33.99-.66 1.98-1 3-.85.66-1.69 1.32-2.56 2-.81.66-1.61 1.32-2.44 2v3c3.91.91 7.99.85 12 1 .49.02.49.02 2.94.12 10.14.23 20.47-.71 30.06-4.12 1.67-.48 3.33-.96 5-1.44 2.96-.87 5.37-1.75 8.12-3.18 2.98-1.43 5.49-1.77 8.75-2.06 2.33-.35 4.3-1.05 6.51-1.88 4.35-1.58 8.15-1.62 12.75-1.35.62-.03 1.23-.06 1.87-.09 0-.66 0-1.32 0-2h2v3c1.66.37 3.33.71 5 1v2c2.03-.07 4.07-.13 6.1-.22.31.04.31.04 1.9.22.69 1.32 1.38 2.65 2 4 2-2.75 2-2.75 4-6h2c-.28 1.68-.62 3.34-1 5v4c-.27.87-.54 1.73-.81 2.62-.06.79-.13 1.57-.19 2.38.82.25 1.64.5 2.49.76.83.41 1.66.82 2.51 1.24.78 6.4-.51 14.03-3 20-2.79 3.4-5.53 6.16-10 7 1.06-2.38 1.06-2.38 3-5h2c2.44-7.06 3.95-15.61.83-22.63-4.45-6.94-8.78-10.38-16.83-12.37-13.17-1.55-24.59 1.98-37 6-4.33 1.36-8.66 2.7-13 4-.95.3-1.89.6-2.87.91-7.27 2.03-14.32 2.4-21.82 2.47-.96.01-1.92.02-2.91.04-8.69-.06-16.27-2.06-24.02-5.98-.42-.21-.42-.21-2.54-1.26-.61-.39-1.22-.78-1.84-1.18 0-.66 0-1.32 0-2-.76-.29-1.51-.58-2.29-.88-4.68-1.93-6.74-5.59-8.71-10.12-.87-4.81-1.17-9.52.96-14.03 2.52-3.28 5.16-4.81 9.04-5.97 4.19-.39 8.4-.41 12.61-.48 5.25-.16 8.75-.8 13.39-3.52h2c.72-1.65 1.38-3.31 2-5z" fill="#fdfcea" transform="translate(566 81)"/><path d="m0 0c3.08-.11 6.16-.19 9.24-.26.9-.03 1.81-.07 2.73-.11 4.42-.06 6.25.05 9.89 2.76 2.63 3.69 2.63 3.69 2.57 6.73.01.64.03 1.28.04 1.94-1.11 3.45-2.81 4.84-5.66 7.06-3.44.71-6.81.6-10.3.52-1.02 0-2.04-.01-3.09-.01-3.31-.02-6.62-.08-9.93-.14-2.27-.02-4.55-.04-6.83-.06-6.62-.06-13.24-.18-19.85-.31-.45-.01-.45-.01-2.72-.05-13.62-.28-27.23-.73-40.82-1.7-5.91-.37-11.82-.47-17.74-.63-11.11-.3-22.2-.73-33.29-1.56-.52-.04-.52-.04-3.2-.22-10.35-.83-10.35-.83-15.23-2.84.33-.99.66-1.98 1-3 1.72-.6 1.72-.6 3.99-.91.84-.12 1.68-.24 2.55-.37.92-.11 1.84-.22 2.78-.34.47-.06.47-.06 2.87-.38 9.52-1.2 19.03-1.71 28.62-2.06 1.84-.08 3.68-.16 5.52-.23 3.88-.17 7.76-.32 11.63-.47 6.17-.24 12.34-.51 18.51-.77 10.99-.47 21.99-.93 32.98-1.37 2.34-.09 4.68-.19 7.02-.28 6.85-.29 13.69-.54 20.53-.73 2.06-.06 4.13-.13 6.19-.21z" fill="#f0c00d" transform="translate(175.193848 134.880859)"/><path d="m0 0h2c-.23 5.04-3.13 9.24-5.56 13.5-.45.8-.9 1.6-1.37 2.43-3.24 5.7-6.6 11.31-10.08 16.87-1.79 2.87-3.52 5.77-5.24 8.68-19.35 32.65-19.35 32.65-30.75 36.52-.7.27-1.41.54-2.13.82-.66.24-1.32.49-1.99.74s-1.33.5-2.01.76c-16.76 6.13-39.62 1.03-56.87-1.32-1.3-.18-2.6-.35-3.94-.54-16.53-2.27-32.99-4.89-49.44-7.71-.76-.13-1.52-.26-2.3-.4-9.1-1.56-9.1-1.56-13.32-2.35-.8-.15-1.6-.3-2.43-.45-.52-.18-1.04-.36-1.57-.55 0-.66 0-1.32 0-2 2.02-.17 2.02-.17 4.89-.05 1.07.04 2.13.09 3.23.13.59.03.59.03 3.57.17 1.21.05 2.43.1 3.68.16 9.86.44 19.69 1.13 29.53 1.86 10.34.74 20.67 1.12 31.03 1.39 5.09.14 10.13.29 15.19.85 12.51 1.38 29.18 3.08 40.88-2.51 0-.66 0-1.32 0-2 1.83-1.33 1.83-1.33 4.25-2.81 3.69-2.36 6.14-4.64 8.75-8.19h2c.71-1.31 1.37-2.65 2-4 .97-1.44 1.97-2.86 3-4.25.52-.71 1.03-1.41 1.56-2.14.48-.53.95-1.06 1.44-1.61h2c.12-.41.12-.41.75-2.5 1.59-4.45 4.02-8.04 7.25-11.5h2c.69-1.66 1.35-3.33 2-5 1.44-2.31 1.44-2.31 3-4h3c0-1.32 0-2.64 0-4l2-1c.99-1.71 1.97-3.42 2.92-5.14 1.46-2.52 3.12-4.71 5.08-6.86h2c0-.66 0-1.32 0-2z" fill="#fdec8d" transform="translate(459 82)"/><path d="m0 0c1.69 2.15 1.77 3.37 1.78 6.09.02.75.04 1.5.06 2.27-.71 3.35-2.09 4.93-4.5 7.35-2.99.62-2.99.62-6.6.59-.34.01-.34.01-2.06.01-2.32-.01-4.64-.05-6.97-.1-1.67-.02-3.35-.03-5.03-.05-16.69-.23-33.37-.95-50.04-1.67-2.15-.09-4.29-.18-6.43-.27-45.04-1.9-45.04-1.9-55.87-5.51 0-.99 0-1.98 0-3 5.2-1.68 10.23-2.35 15.69-2.78.72-.06 1.44-.12 2.19-.18 2.37-.19 4.75-.36 7.12-.54.82-.06 1.65-.13 2.5-.19 19.48-1.49 38.98-2.48 58.5-3.31.71-.03 1.41-.06 2.14-.09 43.36-1.85 43.36-1.85 47.52 1.38z" fill="#f0be0c" transform="translate(209.660156 94.289063)"/><path d="m0 0c.72.44 1.43.87 2.17 1.32.85 4.66-.4 7.33-3 11.13-.32.48-.32.48-1.96 2.91-.67.98-1.35 1.96-2.04 2.96-1.23 1.86-2.46 3.71-3.69 5.57-.66.98-1.32 1.97-2.01 2.99-1.76 2.62-3.5 5.25-5.23 7.89-10.9 16.53-10.9 16.53-16.07 22.55-.26.31-.26.31-1.56 1.88-6.3 6.99-15.37 11.65-24.8 12.28-16.17.26-31.86-.99-47.89-3.03-2.25-.27-4.49-.55-6.74-.82-6.01-.73-12.01-1.48-18.01-2.31-1.07-.13-2.14-.26-3.24-.39-.54-.08-.54-.08-3.23-.45-.96-.13-1.93-.25-2.92-.38-3.18-.94-4.55-2.21-6.61-4.78-.38-2.62-.38-2.62 0-5 2-2 2-2 3.85-2.25 7.12.06 14.09.85 21.15 1.79 2.11.28 4.22.55 6.32.82 5.44.7 10.87 1.4 16.3 2.13 43.45 5.81 43.45 5.81 62.38-8.49 2.34-2.13 4.16-4.42 6-7 .68-.96 1.37-1.92 2.08-2.91 3.69-5.23 7.25-10.56 10.79-15.9.65-.96 1.29-1.92 1.95-2.9 1.68-2.53 3.32-5.07 4.95-7.63.97-1.49 1.94-2.98 2.92-4.47.45-.72.9-1.45 1.36-2.19 3.25-4.92 3.25-4.92 6.78-5.32z" fill="#fdfbdb" transform="translate(458.832031 124.675781)"/><path d="m0 0c1.47-.01 2.95-.03 4.42-.05 2.05-.03 4.1-.04 6.15-.05.59 0 .59 0 3.57-.03 3.31.39 4.69 1.02 7.02 3.36.54 2.34.54 2.34.5 4.94.01.42.01.42.04 2.59-.74 3.41-1.72 4.39-4.54 6.47-3.04.6-6.04.54-9.14.5-.46 0-.46 0-2.82 0-3.09 0-6.19-.03-9.29-.06-1.06-.01-2.13-.01-3.22-.02-18.22-.1-36.4-.82-54.59-1.79-.59-.04-.59-.04-3.59-.2-12.84-.69-25.63-1.45-38.35-3.43-.96-.12-1.92-.25-2.91-.37-.69-.21-1.38-.42-2.09-.63 0-.99 0-1.98 0-3 3.42-1.8 6.72-2.37 10.53-2.78 1.09-.12 2.17-.24 3.29-.36 1.18-.12 2.35-.24 3.56-.36 1.23-.13 2.47-.25 3.74-.39 29.14-2.9 58.44-4.11 87.72-4.34z" fill="#f0c00c" transform="translate(183.83551 178.769836)"/><path d="m0 0c2.38.3 2.38.3 3.38 1.3.09 7.52-4.41 12.72-8.57 18.68-.69 1.02-1.38 2.03-2.09 3.07-1.4 2.05-2.81 4.1-4.22 6.15-2.82 4.11-5.57 8.25-8.33 12.4-9.67 14.53-18.69 26.79-36.53 31.11-13.06 2.35-26.75-.09-39.74-1.87-3.11-.42-6.22-.83-9.34-1.23-2-.27-4-.54-6-.81-.46-.06-.46-.06-2.79-.36-13.06-1.8-13.06-1.8-16.39-5.14-.25-3-.25-3 0-6 2-2 2-2 4.23-2.25 6.54.08 12.86.64 19.33 1.62 1.93.28 3.87.55 5.8.83.47.06.47.06 2.88.41 36.02 5.08 36.02 5.08 47.76-.61.81-.36 1.63-.71 2.47-1.07 10.77-4.92 16.86-12.21 23.15-22.06.68-1.04 1.37-2.08 2.07-3.15 3.47-5.3 6.88-10.63 10.28-15.97.62-.97 1.25-1.94 1.9-2.94 1.19-1.84 2.36-3.7 3.52-5.56.27-.42.27-.42 1.62-2.5.46-.73.91-1.46 1.39-2.21 1.6-1.54 1.6-1.54 4.22-1.84z" fill="#fdfadb" transform="translate(467.624268 183.703125)"/><path d="m0 0c1.48-.01 2.96-.03 4.44-.04 2.03-.03 4.05-.03 6.08-.03 1.14 0 2.27 0 3.44-.01 2.78.38 2.78.38 4.61 1.66 2.01 2.94 2.75 6.25 2.17 9.72-1.62 2.48-2.75 4.16-5 6-3 .58-5.16.77-8.15.69-.4 0-.4 0-2.47 0-2.73-.01-5.46-.07-8.19-.13-1.93-.02-3.86-.05-5.8-.07-16.39-.23-32.77-.98-49.14-1.81-1.19-.05-2.39-.11-3.62-.17-32.92-1.66-32.92-1.66-40.63-5.51 0-.66 0-1.32 0-2 7.39-3.47 15.94-3.88 23.94-4.57.67-.06 1.35-.12 2.04-.18 25.34-2.25 50.84-3.37 76.28-3.55z" fill="#f0bf0b" transform="translate(220.261047 49.703461)"/><path d="m0 0c2.62 0 2.62 0 5 1-.13 5.96-2.22 9.53-5.56 14.19-.92 1.32-1.83 2.64-2.74 3.96-.46.65-.92 1.3-1.39 1.97-1.88 2.7-3.69 5.44-5.5 8.19-10.72 16.05-18.62 27.48-38.22 32.28-14.71 2.33-33.98.46-47.59-5.59-1-1-1-1-1.12-4.5.12-3.5.12-3.5 1.12-4.5 5.87-.57 11.63.18 17.44 1 17.19 2.32 33.45 2.66 48.15-7.83 6.69-6.02 11.61-13.16 16.47-20.67 10.43-15.99 10.43-15.99 13.94-19.5z" fill="#fdf8c7" transform="translate(454 165)"/><path d="m0 0c3.31-.09 6.61-.16 9.92-.21 1.01-.03 2.02-.06 3.06-.09 4.37-.04 7.02-.01 10.89 2.17 2.22 2.66 2.45 4.7 2.52 8.13-1.13 3.57-2.62 4.91-5.66 7.1-3.76.73-7.44.61-11.25.5-1.15-.02-2.31-.03-3.49-.05-20.91-.46-41.91-2.13-62.69-4.43-.69-.07-1.39-.14-2.1-.22-3.75-.43-7.14-.96-10.47-2.8 0-.99 0-1.98 0-3 7.37-3.97 16.96-3.94 25.12-4.63 1.43-.12 2.86-.25 4.29-.37 13.28-1.15 26.54-1.7 39.86-2.1z" fill="#f1bf0a" transform="translate(187.270996 221.901367)"/><path d="m0 0v3c.72.29 1.44.58 2.19.88 4.56 1.82 7.09 4.77 9.37 9.06.07.34.07.34.44 2.06-.62-.37-1.24-.74-1.88-1.12-.7-.29-1.4-.58-2.12-.88-.09 2.33-.08 4.67 0 7-.33.5-.33.5-2 3-3.31.5-3.31.5-7 0-2.5-2.31-2.5-2.31-5-5-6.01-3.56-12.11-3.78-19-3-.99.66-1.98 1.32-3 2-2.45.3-2.45.3-5.12.31-.89.02-1.78.04-2.7.05-.72-.12-1.44-.24-2.18-.36-.16-.5-.16-.5-1-3-.66 0-1.32 0-2 0-.45-.54-.91-1.07-1.38-1.62-.53-.46-1.07-.91-1.62-1.38-2.06.75-2.06.75-4 2-3.4 1.7-7.29 1.18-11.03 1.2-.91.01-1.81.01-2.75.02-1.92.01-3.84.02-5.77.02-2.91.01-5.82.04-8.74.07-1.87.01-3.74.01-5.62.02-.86.01-1.72.02-2.6.04-6.07-.03-11.92-.82-17.49-3.37 0-.66 0-1.32 0-2 1.54.39 3.06.87 4.56 1.38 19.98 5.21 40.92.88 59.8-6.4 10.49-3.89 26.58-8.77 37.64-3.98z" fill="#e8c129" transform="translate(646 119)"/><path d="m0 0c.75 0 1.51-.01 2.29-.01 1.58-.01 3.17-.01 4.76 0 2.41 0 4.83-.03 7.24-.05h4.65c.71-.01 1.43-.02 2.17-.03 4.65.04 7.97.8 11.86 3.39v3c-8.49 3.75-17.45 3.98-26.61 4.64-7.83.7-13.66 2.27-20.39 6.36-.93.53-1.85 1.05-2.81 1.59-4.64 3.02-7.2 5.68-10.19 10.41-1.95 1.86-3.98 3.59-6.04 5.33-2.47 2.1-4.7 4.35-6.96 6.67-.66.66-1.32 1.32-2 2-1.32 0-2.64 0-4 0 .09-4.73 1.14-8.23 4-12h2c.23-.78.45-1.57.69-2.37 2.58-7.13 7.55-13.69 13.31-18.63h2c0-.66 0-1.32 0-2 1.98-1.44 1.98-1.44 4.62-3 .86-.51 1.72-1.03 2.61-1.56 5.58-2.9 10.56-3.75 16.8-3.74z" fill="#feed95" transform="translate(322.03125 38.699219)"/><path d="m0 0h2c-.06.42-.06.42-.38 2.56.13.81.25 1.61.38 2.44 3.88-.25 3.88-.25 6.05-.7 1.95-.3 1.95-.3 3.95.7.25 2.56.25 2.56 0 5-.66 0-1.32 0-2 0 .33.99.66 1.98 1 3 .59 6.1-.63 9.09-4 14-3.82 2.55-6.89 2.27-11.31 2.23-.42 0-.42 0-2.53 0-2.72 0-5.44-.02-8.16-.04-1.88-.01-3.75-.02-5.63-.03-18.62-.1-37.21-.32-55.73-2.43-7.08-.77-14.15-1.02-21.26-1.23-8.16-.25-16.19-.66-24.28-1.7-8.75-1.08-17.56-1.56-26.35-2.1-.6-.04-.6-.04-3.65-.24-.54-.03-.54-.03-3.27-.19-4.79-.45-4.79-.45-6.83-1.27-1.52-3.45-1.52-3.45-1-7 3.91-1.57 8.08-1.61 12.25-1.88 1.31-.1 2.62-.21 3.96-.32 11.93-.95 23.89-1.25 35.85-1.51 11.03-.23 22.04-.66 33.06-1.16 2-.09 4-.17 6-.26 2.8-.12 5.59-.24 8.39-.37.84-.04 1.69-.07 2.56-.11 5.82-.28 5.82-.28 6.93-1.39 4.5-.54 9.04-.77 13.56-1.06.67-.05 1.34-.09 2.03-.14 10.48-.72 20.89-.97 31.4-.55.46.01.46.01 2.81.07.82.03 1.63.07 2.47.1.57-.14 1.14-.28 1.73-.42 0-1.32 0-2.64 0-4zm-26.38 7.17c-6.86.2-13.71.45-20.56.71-2.5.09-4.99.18-7.49.27-6.31.23-12.62.47-18.93.71-3.5.13-7 .27-10.5.4-5.29.2-10.59.41-15.88.62-1.92.08-3.85.15-5.77.23-42.79 1.66-42.79 1.66-54.49 4.89-.33.99-.66 1.98-1 3 5.87 2.42 12.16 2.62 18.44 3.06 1.12.09 2.23.17 3.39.25 10.65.75 21.31 1.08 31.98 1.37 6.41.17 12.8.36 19.19.82 13.32.9 26.66 1.24 40 1.5 1 .02 2.01.04 3.04.06 6.75.13 13.49.22 20.24.28 2.27.02 4.53.05 6.8.09 3.21.06 6.41.08 9.62.09.97.03 1.93.05 2.93.07 4.66-.01 6.69-.06 10.47-2.99 1.83-2.51 2.59-3.56 2.52-6.6.02-.64.03-1.28.04-1.94-1.1-3.42-2.84-4.85-5.66-7.06-3.22-.66-6.35-.51-9.63-.37-.96.02-1.93.05-2.92.07-5.28.12-10.55.33-15.83.47z" fill="#fefad1" transform="translate(192 128)"/><path d="m0 0c3.33 2.72 4.87 5.17 5.56 9.5-.66 4.12-1.94 6.28-4.56 9.5-3.6 2.4-5.57 2.7-9.83 2.66-6.44-1.35-12-5.25-17.52-8.72-3-1.71-5.57-2.07-8.95-2.12-.41-.01-.41-.01-2.46-.07-1.72-.04-3.44-.07-5.16-.09-2.44-.09-2.44-.09-6.08-.66.02-1.79.02-1.79 2-4 12.7-8.35 32.95-13.95 47-6z" fill="#f1bf0a" transform="translate(540 237)"/><path d="m0 0c4.74 4.29 8.29 7.93 8.94 14.56-.45 5.44-1.89 9.69-6.08 13.36-8.68 5.81-17.87 5.77-27.98 5.96-10.7.19-20.85.98-31.19 3.81-.51.11-.51.11-3.07.69.5-1.26.5-1.26 3-3 2.7-.82 5.26-1.46 8-2 .78-.17 1.55-.34 2.35-.52 8.83-1.78 17.56-1.89 26.54-2.05 6.31-.16 12.13-.32 18.11-2.43.88-2.5.88-2.5 1-5 .66-.66 1.33-1.32 2-2-.16-.33-.16-.33-1-2-.99-.33-1.98-.66-3-1-1.35-1.32-2.68-2.65-4-4-2.48-1.25-3.76-.96-6.5-.63-.39.05-.39.05-2.4.27-2.1.36-2.1.36-4.1 1.36-3.68.31-3.68.31-7 0-.06-1.94-.06-1.94 1-4 .66-.34 1.33-.66 2-1 .11-.66.21-1.32.32-2 .22-.66.45-1.32.68-2 2.57-.63 2.57-.63 5-1 0-.66 0-1.32 0-2-2.43-.32-2.43-.32-5 0-.33.99-.65 1.97-1 3-3 2-3 2-5.49 1.83-.5-.27-.99-.55-1.51-.83 1.84-1.56 1.84-1.56 4.94-3.44.5-.31.5-.31 3.03-1.87 7.22-4.03 14.66-5.8 22.41-2.07z" fill="#e6c230" transform="translate(571.375 176.625)"/><path d="m0 0c1.48-.01 2.96-.03 4.44-.04 2.03-.03 4.05-.03 6.08-.03 1.14 0 2.27 0 3.44-.01 2.78.38 2.78.38 4.61 1.66 2.01 2.94 2.75 6.25 2.17 9.72-1.62 2.48-2.75 4.16-5 6-3 .58-5.16.77-8.15.69-.4 0-.4 0-2.47 0-2.73-.01-5.46-.07-8.19-.13-1.93-.02-3.86-.05-5.8-.07-16.39-.23-32.77-.98-49.14-1.81-1.19-.05-2.39-.11-3.62-.17-32.92-1.66-32.92-1.66-40.63-5.51 0-.66 0-1.32 0-2 7.39-3.47 15.94-3.88 23.94-4.57.67-.06 1.35-.12 2.04-.18 25.34-2.25 50.84-3.37 76.28-3.55zm-38.7 3.51c-8.51.84-17.02 1.19-25.57 1.44-5.09.16-10.17.38-15.25.75-.91.06-1.82.13-2.76.2-.66.13-1.31.26-1.98.4v2c-1.67 0-3.33 0-5 0v2c2.41.48 2.41.48 5.78.81.61.06.61.06 3.72.38 1.33.12 2.67.25 4 .37 1.34.13 2.68.26 4.01.39 8.14.79 16.26 1.45 24.42 1.84 3.07.21 3.07.21 5.75.7 3.83.58 7.61.73 11.47.82.78.02 1.56.04 2.36.07 1.64.04 3.28.08 4.93.12 2.46.06 4.92.12 7.38.19 3.97.1 7.93.19 11.9.26 1.51.03 3.02.06 4.53.1 2.08.04 4.17.07 6.25.1 1.19.02 2.37.04 3.59.06 2.91-.21 2.91-.21 5.91-2.21.43-2.32.43-2.32.44-5 .01-.45.01-.45.06-2.69-.5-2.31-.5-2.31-2.07-3.44-3.28-1.18-6.41-1.16-9.85-1.14-.73 0-1.46 0-2.21-.01-2.37 0-4.75.01-7.12.03-.81 0-1.63 0-2.46 0-10.8.04-21.48.4-32.23 1.46z" fill="#e2c23e" transform="translate(220.261047 49.703461)"/><path d="m0 0c1.69 2.15 1.77 3.37 1.78 6.09.02.75.04 1.5.06 2.27-.72 3.38-2.05 4.93-4.5 7.35-3.27.6-3.27.6-7.23.56-.74 0-1.47 0-2.22-.01-2.43-.01-4.87-.06-7.3-.11-1.71-.02-3.41-.04-5.12-.06-14.53-.18-29.05-.73-43.57-1.32-1.08-.04-2.16-.08-3.27-.13-3.05-.12-6.11-.26-9.16-.39-.93-.04-1.85-.08-2.81-.12-2.11-.1-4.21-.25-6.32-.42 0-.33 0-.66 0-1 2.74-.1 5.45-.14 8.19-.13h2.57c1.82-.01 3.63 0 5.45 0 2.72.01 5.44 0 8.16-.01 9.3 0 18.49.25 27.77.9 6.1.38 12.2.5 18.31.54 1.4.01 2.79.03 4.18.06 2.05.04 4.1.06 6.15.07 1.2.01 2.39.03 3.63.04.85-.15 1.71-.31 2.59-.47 0-1.32 0-2.64 0-4h2c-.19-3.37-.19-3.37-1-7-3.65-2.43-6.34-2.27-10.55-2.23-.74 0-1.48 0-2.24 0-1.56 0-3.13.01-4.69.03-2.38.01-4.76.02-7.14.02-1.52 0-3.04.01-4.56.01-.71 0-1.42.01-2.15.01-2.74.02-5.35.1-8.04.65-2.79.54-5.45.74-8.28.87-.56.02-.56.02-3.37.16-1.2.05-2.4.11-3.63.16-2.56.13-5.12.25-7.67.38-4.02.19-8.03.38-12.04.56-33.26 1.56-33.26 1.56-40.64 3.38-.33.66-.66 1.32-1 2 3 .27 5.93.42 8.94.5 3.04.08 6.02.24 9.06.5v2c1.75.16 1.75.16 4 .06 1.33-.05 2.67-.08 4-.06v1c-13.86 1.07-30.8.4-44-4 0-.99 0-1.98 0-3 5.2-1.68 10.23-2.35 15.69-2.78.72-.06 1.44-.12 2.19-.18 2.37-.19 4.75-.36 7.12-.54.82-.06 1.65-.13 2.5-.19 19.48-1.49 38.98-2.48 58.5-3.31.71-.03 1.41-.06 2.14-.09 43.36-1.85 43.36-1.85 47.52 1.38z" fill="#e2c344" transform="translate(209.660156 94.289063)"/><path d="m0 0c3.01-.11 6.02-.19 9.03-.25.9-.04 1.8-.08 2.72-.12 4.42-.05 6.25.05 9.9 2.77 2.63 3.69 2.63 3.69 2.57 6.72.01.64.03 1.28.04 1.94-1.11 3.45-2.81 4.85-5.66 7.06-3.44.71-6.81.61-10.31.53-1.01-.01-2.03-.01-3.08-.02-3.31-.02-6.62-.07-9.93-.13-2.28-.02-4.55-.05-6.83-.06-6.62-.07-13.24-.18-19.85-.32-.45-.01-.45-.01-2.72-.05-13.62-.27-27.23-.73-40.82-1.7-5.91-.37-11.82-.47-17.74-.63-11.11-.3-22.2-.73-33.29-1.55-.53-.04-.53-.04-3.2-.23-10.35-.83-10.35-.83-15.23-2.84.33-.99.66-1.98 1-3 1.69-.59 1.69-.59 3.93-.91.83-.12 1.66-.24 2.52-.36.91-.11 1.82-.23 2.76-.34.47-.07.47-.07 2.85-.38 10.16-1.28 20.33-1.76 30.56-2.13 1.82-.07 3.63-.15 5.45-.22 2.69-.12 5.38-.23 8.07-.33 5.93-.23 11.85-.54 17.77-.87 7.93-.44 15.83-.61 23.77-.58.6 0 .6 0 3.65-.01h3.43 3.06c.36.03.36.03 2.18.13v1c-1.5.19-3 .29-4.5.38-.99.05-1.98.11-3 .17-.54.03-.54.03-3.3.17-.56.03-.56.03-3.39.19-3.67.2-7.34.4-11 .59-2.5.14-5 .28-7.5.41-12.71.69-25.41 1.3-38.13 1.66-27.52.76-27.52.76-30.18 3.43 13.41 2.95 27.68 2.85 41.33 3.47 2.06.1 4.11.19 6.16.29 23.17 1.08 46.35 1.67 69.54 2.02 2.47.04 4.94.08 7.42.12 3.88.06 7.77.12 11.66.16 1.44.02 2.88.04 4.31.06 1.97.03 3.93.05 5.89.07 1.1.01 2.21.02 3.34.04.78-.08 1.55-.15 2.35-.23 0-.66 0-1.32 0-2h3c.61-1.93.61-1.93.87-4.43.1-.83.2-1.65.3-2.5-.05-.68-.11-1.36-.17-2.07-.99-.33-1.98-.66-3-1 0-.66 0-1.32 0-2-1.9-.23-1.9-.23-4.59-.21-.51 0-.51 0-3.04.01-.54.01-.54.01-3.31.04-.56.01-.56.01-3.37.02-3.56.02-7.13.05-10.69.08-3.57.03-7.14.05-10.7.07-2.23.01-4.46.03-6.68.06-.5 0-.5 0-3.03.02-.45 0-.45 0-2.7.02-.62-.03-1.25-.07-1.89-.11 0-.33 0-.66 0-1 1.77-.16 3.56-.25 5.35-.31 1.15-.05 2.3-.09 3.49-.13 5.13-.16 10.26-.32 15.39-.45 2.39-.07 4.78-.14 7.17-.23z" fill="#e1c54c" transform="translate(175.404785 134.876465)"/><path d="m0 0c.35.11.35.11 2.12.69 0 3 0 3-1 6-.99 0-1.98 0-3 0v3c-2.88 2.11-4.38 3-8 3v2c-2.66 1.14-5.24 2.11-8 3-1.19.39-2.39.78-3.62 1.19-12.81 2.98-26.91.25-39.38-3.19-.67-.14-1.34-.29-2.03-.43-1.97-.45-1.97-.45-4.97-1.57 0-1.32 0-2.64 0-4 3.14-.33 5.94-.37 9.07-.25.47.01.47.01 2.84.04 4.03.07 8.06.18 12.09.29 30.87.77 30.87.77 38.76-6.68 2.24-2.4 2.24-2.4 5.12-3.09z" fill="#fefef3" transform="translate(428.875 205.3125)"/><path d="m0 0c4.21 1.59 7.1 3.56 10 7 1.77 5.31 2.14 11.22-.01 16.46-3.17 5.27-3.17 5.27-6.99 6.54.9-2.33 2.14-4.19 3.62-6.19 1.88-3.84 2.05-7.59 1.38-11.81-.66-.33-1.32-.66-2-1-.01.4-.01.4-.09 2.43-.3.85-.6 1.69-.91 2.57-3.04.33-5.55.38-8.56.19-2.83-.14-5.61-.21-8.44-.19v2c-2.54.21-4.96.28-7.5.25-.36 0-.36 0-2.17.02-1.78 0-3.56-.13-5.33-.27 0-.66 0-1.32 0-2-.66 0-1.32 0-2 0 0-.66 0-1.32 0-2 2.88-1.4 4.77-2 8-2 0-.66 0-1.32 0-2 1.33-.33 2.67-.67 4-1 0-.66 0-1.32 0-2-1.64.48-3.27.96-4.9 1.47-3.58.9-7.12.78-10.79.72-.74 0-1.49 0-2.26 0-6.81-.06-6.81-.06-10.05-1.19 0-.66 0-1.32 0-2 1.68.27 3.34.62 5 1 9.89 1.16 20.39-1.56 29.2-6.14 3.43-1.63 7.1-1.28 10.8-.86z" fill="#e5c131" transform="translate(557 58)"/><path d="m0 0c1.47-.01 2.95-.03 4.42-.05 2.05-.03 4.1-.04 6.15-.05.59 0 .59 0 3.57-.03 3.31.39 4.69 1.02 7.02 3.36.54 2.34.54 2.34.5 4.94.01.42.01.42.04 2.59-.74 3.41-1.72 4.39-4.54 6.47-3.04.6-6.04.54-9.14.5-.93 0-1.86 0-2.82 0-3.09 0-6.19-.03-9.29-.06-2.16-.01-4.32-.02-6.48-.04-17.46-.14-34.89-.9-52.33-1.84-1.25-.06-2.5-.13-3.79-.2-3.54-.19-7.08-.4-10.62-.61-1.07-.06-2.14-.12-3.24-.18-.96-.06-1.93-.12-2.92-.18-.85-.05-1.7-.1-2.57-.16-.59-.07-1.18-.15-1.8-.23 0-.33 0-.66 0-1 1.4-.1 2.8-.13 4.2-.13.93 0 1.86-.01 2.82-.01 1.02.01 2.05.01 3.11.02h3.2c8.86.05 17.7.27 26.55.56 1.25.04 2.5.08 3.79.12 1.2.04 2.4.08 3.64.12.53.02.53.02 3.19.11 2.79.17 5.54.42 8.32.72 4.97.51 9.88.65 14.88.66.43 0 .43 0 2.64.01 1.82 0 3.63.01 5.45.01 2.8 0 5.6.02 8.4.03 1.77.01 3.54.01 5.32.01.84.01 1.68.02 2.54.02 1.99-.01 3.97-.12 5.95-.25.33-.66.66-1.32 1-2h2c.02-1.93.02-1.93-.31-4.44-.05-.41-.05-.41-.3-2.49-.39-2.07-.39-2.07-1.39-3.07-1.58-.1-3.17-.13-4.75-.13-.51 0-.51 0-3.06-.01-1.09.01-2.18.01-3.31.02-1.12 0-2.23 0-3.39 0-7.67.05-15.32.23-22.99.56-.92.04-1.84.08-2.79.12-3.99.19-7.93.46-11.89.94-4.95.56-9.87.7-14.85.78-1.88.04-3.76.08-5.64.11-2.93.06-5.87.11-8.8.16-2.85.05-5.7.11-8.56.17-.44.01-.44.01-2.68.04-6.17.13-6.17.13-7.29 1.24-2.14.21-4.28.37-6.43.5-6.35.39-6.35.39-8.57 1.5 2.37 2.37 3.8 2.41 7 3v1c-5.95.33-12.36.16-18-2 0-.99 0-1.98 0-3 3.42-1.8 6.72-2.37 10.53-2.78 1.09-.12 2.17-.24 3.29-.36 1.18-.12 2.35-.24 3.56-.36 1.23-.13 2.47-.25 3.74-.39 29.14-2.9 58.44-4.11 87.72-4.34z" fill="#e2c342" transform="translate(183.83551 178.769836)"/><path d="m0 0c3.31-.09 6.61-.16 9.92-.21 1.01-.03 2.02-.06 3.06-.09 4.37-.04 7.02-.01 10.89 2.17 2.22 2.66 2.45 4.7 2.52 8.13-1.13 3.57-2.62 4.91-5.66 7.1-3.76.73-7.44.61-11.25.5-1.15-.02-2.31-.03-3.49-.05-20.91-.46-41.91-2.13-62.69-4.43-.69-.07-1.39-.14-2.1-.22-3.75-.43-7.14-.96-10.47-2.8 0-.99 0-1.98 0-3 7.37-3.97 16.96-3.94 25.12-4.63 1.43-.12 2.86-.25 4.29-.37 13.28-1.15 26.54-1.7 39.86-2.1zm-31.02 3.04c-.79.04-1.58.08-2.39.13-15.01.84-15.01.84-17.86 1.93v2c-1.32 0-2.64 0-4 0v2c7.27 2.51 15.52 2.56 23.12 3.06 2.26.16 4.51.31 6.76.47.49.04.49.04 2.98.2 3.05.26 6.07.64 9.1 1.03 5.36.62 10.76.75 16.15.96 1.48.06 2.95.13 4.43.21 2.15.11 4.3.2 6.45.28 1.27.05 2.55.11 3.86.17 3.15-.38 3.15-.38 5.08-2.26 1.84-3.65.91-6.19.07-10.12-4.59-2.29-10.81-1.19-15.88-1.19-.69 0-1.39 0-2.11 0-11.94.01-23.84.46-35.76 1.13z" fill="#e3c23d" transform="translate(187.270996 221.901367)"/><path d="m0 0c.81 1.38.81 1.38 1 4-.64 1.68-1.31 3.34-2 5-2.3 8.93-2.47 16.86-.56 25.88 1.09 5.4 1.94 10.68 2.25 16.2.31 1.92.31 1.92 2.31 4.92.38 2.17.38 2.17.56 4.69.08.94.15 1.87.22 2.84.08 1 .15 2 .22 3.03l.51 6.27c.08 1.04.16 2.08.25 3.16 1.65 20.64 1.65 20.64 5.36 29.55 1.22 3.4 1.43 6.68 1.67 10.26.28 2.92 1.21 5.44 2.21 8.2.86 3.02 1.5 5.89 2 9-4.36-2.42-5.61-7.52-7-12-.74-3.1-1.29-6.23-1.81-9.38-.34-1.94-.68-3.89-1.02-5.83-.18-1.07-.37-2.14-.55-3.25-.69-3.92-1.39-7.84-2.1-11.77-2.45-13.53-4.83-27.03-6.54-40.67-.64-4.96-1.51-9.74-2.67-14.6-2.44-10.84-2.51-20.53 2.69-30.5.56-1.11 1.11-2.23 1.69-3.38.43-.53.86-1.07 1.31-1.62z" fill="#e5c136" transform="translate(225 117)"/><path d="m0 0c2.28-.25 2.28-.25 5.37-.25 1.17 0 2.34-.01 3.54-.01 1.29.01 2.59.01 3.92.02 1.36 0 2.73-.01 4.1-.01 3.73 0 7.46 0 11.19.01 3.92.01 7.85.01 11.77.01 6.62 0 13.24.01 19.85.02 7.59.02 15.17.03 22.75.02 8.13 0 16.26.01 24.39.02h6.92c14.65.01 29.29.07 43.94.56.53.01.53.01 3.21.09 4.98.19 9.45.4 14.05 2.52.33.66.66 1.32 1 2 .7.31 1.4.62 2.12.94.62.35 1.24.7 1.88 1.06-.33.99-.66 1.98-1 3-3.25-1.69-3.25-1.69-5.02-2.82-4.53-2.69-8.26-3.44-13.52-3.48-1.32-.02-2.63-.04-3.98-.05-1.44-.01-2.88-.02-4.31-.03-1.5-.01-3-.03-4.49-.05-3.18-.04-6.36-.07-9.54-.09-7.46-.06-14.92-.15-22.39-.23-2.45-.03-4.91-.06-7.37-.08-11.46-.13-22.92-.37-34.38-.73-11.3-.36-22.58-.46-33.88-.43-.65 0-.65 0-3.92.01-6.47.02-12.95.05-19.42.1-2.34.02-4.69.03-7.03.04-1.11.01-2.21.03-3.35.04-.49 0-.49 0-3.01.01-.87.01-1.75.02-2.65.02-.58-.07-1.15-.15-1.74-.23z" fill="#fcf5b9" transform="translate(305 19)"/><path d="m0 0c3.06 1.94 3.06 1.94 5 5 .49 3.29.21 5.9-1 9-4.92 4.48-9.66 4.44-16.13 4.43-3.36-.5-5.24-1.29-7.87-3.43-1.04-2.43-1.04-2.43-1-5 1.48-2.17 1.48-2.17 3.62-4.19.7-.67 1.39-1.35 2.11-2.04 4.61-3.59 9.53-4.85 15.27-3.77z" fill="#efc00d" transform="translate(579 98)"/><path d="m0 0c7.29-.47 7.29-.47 11 2 .43 2.79.43 2.79.44 6.06.01.54.01.54.06 3.29-.17.87-.33 1.75-.5 2.65-1.96.68-1.96.68-4 1-.33.99-.66 1.98-1 3-.99 0-1.98 0-3 0v2c-3.33.38-6.66.14-10 0-1.03 0-2.06 0-3.12 0-.62-.33-1.24-.66-1.88-1-.54-4.6-.71-9.09 2-13 2.29-1.22 4.58-2.19 7-3.11 2-.89 2-.89 3-2.89z" fill="#fcf8d1" transform="translate(605 63)"/><path d="m0 0c2.44 2.68 3.17 3.74 3.94 7.12-.06.61-.06.61-.38 3.69-3.38.76-4.78.92-8 0-2.5-2.31-2.5-2.31-5-5-5.97-3.45-13.29-4.19-19.96-2.5-2.48.61-4.8.71-7.35.75-.9.03-1.81.05-2.74.08-.64-.11-1.28-.22-1.95-.33 1-3 1-3 2.97-4.1 12.98-4.94 26.26-8.3 38.47.29z" fill="#fdea81" transform="translate(649.4375 129.1875)"/><path d="m0 0v1c-1.87.05-3.75.03-5.62-.01-.6-.01-.6-.01-3.59-.05-2.49-.04-4.99-.09-7.49-.15-6.93-.09-11.98.36-18.3 3.21-.99 0-1.98 0-3 0-.27.6-.54 1.2-.81 1.81-1.19 2.19-1.19 2.19-4.25 3.63-.97.51-1.94 1.03-2.94 1.56-.16.85-.33 1.69-.5 2.56-.16.81-.33 1.61-.5 2.44-3.12 1.62-3.12 1.62-6 2 .29-1.67.63-3.34 1-5-2 .56-2 .56-5 2-2.33.68-4.66 1.34-7 2-1.25.48-2.5.96-3.75 1.44-.74.18-1.49.37-2.25.56 1.53-1.98 3.09-3.39 5-5 .65-.56 1.31-1.11 1.98-1.69 7.58-5.85 16-8.52 25.02-11.31 1.04-.34 2.09-.69 3.16-1.04 11.03-3.25 23.85-3.36 34.84.04z" fill="#fcf6cc" transform="translate(589 149)"/><path d="m0 0c3.33 2.72 4.87 5.17 5.56 9.5-.66 4.12-1.94 6.28-4.56 9.5-3.6 2.4-5.57 2.7-9.83 2.66-6.44-1.35-12-5.25-17.52-8.72-3-1.71-5.57-2.07-8.95-2.12-.41-.01-.41-.01-2.46-.07-1.72-.04-3.44-.07-5.16-.09-2.44-.09-2.44-.09-6.08-.66.02-1.79.02-1.79 2-4 12.7-8.35 32.95-13.95 47-6zm-34 2c-.7.25-1.4.5-2.12.76-1.94.74-1.94.74-4.88 2.24-.33.99-.66 1.98-1 3 2.23.18 4.46.35 6.69.48 4.87.76 9.23 2.58 13.77 4.44 3.47 1.4 5.74 2.08 9.54 2.08v3c3.51 1.75 7.29.96 11 0 3.1-2.65 3.89-4.08 4.38-8.12-.38-2.88-.38-2.88-2.38-5.88-.66 0-1.32 0-2 0 0-.66 0-1.32 0-2-4.66-3-8.84-3.48-14.25-3.38-.38.01-.38.01-2.27.03-5.89.15-11.01 1.11-16.48 3.35z" fill="#e1c243" transform="translate(540 237)"/><path d="m0 0c.97 2.47.97 2.47 1 5-6.33 3.84-15.84 3.79-23 3-4.7-1.47-4.7-1.47-6.38-4.44.13-.84.25-1.69.38-2.56 7.43-4.8 20.16-4.66 28-1z" fill="#fdea8f" transform="translate(399 40)"/><path d="m0 0c3.06 1.69 3.06 1.69 5 4 .12 2.81.12 2.81-1 5-2-.19-2-.19-5-1-4.65-.43-8.16-.36-12.5 1.5-4.29 1.84-7.89 1.99-12.5 1.5-.66-.33-1.32-.66-2-1 0-.66 0-1.32 0-2 2.58-1.1 5.11-2.08 7.75-3 1.45-.52 2.91-1.04 4.36-1.56.68-.25 1.37-.49 2.08-.75 1.81-.69 1.81-.69 4.08-1.85 3.11-1.51 6.39-1.37 9.73-.84z" fill="#fde875" transform="translate(556 64)"/><path d="m0 0h1c.27 5.68.27 5.68 0 8-5.28 5.28-11.18 5.29-18.26 5.38-2.25 0-4.5-.01-6.76-.03-8.22.12-8.22.12-12.23 2.9-1.78 2.8-2.36 4.05-2.19 7.31.02.75.05 1.49.07 2.26.4 2.37 1.28 4.05 2.37 6.18-.12 2.62-.12 2.62-1 4-3.71-3.6-4.36-6.89-4.56-12 .13-3.85.35-6.55 2.75-9.62 6.23-5.27 12.63-4.74 20.42-4.86 5.25-.16 8.75-.8 13.39-3.52h2c.72-1.65 1.38-3.31 2-5z" fill="#fdf7c4" transform="translate(566 81)"/><path d="m0 0c3.3.79 5.06 1.94 7.23 4.54.59 4.11.33 5.5-2 9-3.23.53-4.93.8-8 0-3.47-2.66-5.53-5.76-7.06-9.82.02-.72.04-1.44.06-2.18 3.76-2.51 5.46-2.15 9.77-1.54z" fill="#e6c027" transform="translate(608.769531 195.464844)"/><path d="m0 0c.99.66 1.98 1.32 3 2 .56 3.38.56 3.38 0 7-3.44 3.53-6.54 4.3-11.31 4.56-2.59-.11-2.59-.11-4.69-.56-1.38-2.12-1.38-2.12-1-5 3.62-6.6 6.48-8.54 14-8z" fill="#e7bf2a" transform="translate(611 67)"/><path d="m0 0c2.52.19 4.76.6 7.23 1.14 12.3 2.37 24.65 2.93 37.15 3.55.6.03.6.03 3.67.19 17.06.87 34.11 1.43 51.2 1.5.94 0 1.88.01 2.84.02 2.62.02 5.24.01 7.86 0 .77 0 1.53.01 2.32.02 4.21-.06 6.62-.5 9.73-3.42-.94 2.54-2.08 4.08-4 6-1.83.23-1.83.23-4.09.2-.43 0-.43 0-2.61-.02-.95-.02-1.9-.04-2.87-.06-1.01-.02-2.01-.03-3.05-.05-3.35-.05-6.71-.12-10.07-.19-1.15-.03-2.3-.05-3.48-.08-19.82-.42-39.61-1.31-59.4-2.49-2.12-.12-4.25-.24-6.37-.35-3.99-.22-7.97-.47-11.95-.73-1.2-.06-2.4-.13-3.63-.19-.55-.04-.55-.04-3.31-.23-.96-.06-1.91-.12-2.89-.18-2.28-.63-2.28-.63-3.78-2.69-.08-.32-.08-.32-.5-1.94z" fill="#fcf3b1" transform="translate(118 60)"/><path d="m0 0c2.62 1.56 2.62 1.56 4 4 .5 3.81.5 3.81 0 7-2.97.1-4.53-1.35-7-3 0-.66 0-1.32 0-2-2.19-.27-2.19-.27-5-.25-.93-.01-1.86-.01-2.81-.02-.36.05-.36.05-2.19.27v2c-3.33 1.71-6.25 2.55-10 2 1.2-3.61 2.24-4.11 5.38-6.12.79-.52 1.58-1.04 2.39-1.58 4.85-2.84 9.75-2.93 15.23-2.3z" fill="#fde872" transform="translate(568 181)"/><path d="m0 0c.99.33 1.98.66 3 1-4.81 8.02-16.28 13.24-25 15.53-15.14 2.36-32.07.38-47-2.53 0-.33 0-.66 0-1 3.15-.05 6.28-.04 9.42.01 2 .02 3.99.03 5.99.05 3.15.03 6.31.06 9.46.11 28.72.41 28.72.41 38.13-7.17.46-.35.46-.35 2.81-2.12 2.19-1.88 2.19-1.88 3.19-3.88z" fill="#e1c23c" transform="translate(428 198)"/><path d="m0 0c-2.64 1.5-5.41 2.56-8.25 3.62-4.8 1.91-9.43 4.09-14.06 6.38-.68.33-1.37.66-2.07 1.01-3.95 1.97-7.18 4.19-10.62 6.99-1.71.95-3.43 1.9-5.14 2.85-3.46 2.14-6.44 4.84-9.48 7.53-.65.55-1.29 1.1-1.95 1.67-3.04 2.65-5.8 5.29-8.32 8.45-.7.82-1.39 1.65-2.11 2.5-1.12-1.31-1.12-1.31-1-4 2.47-2.92 5.29-5.24 8.25-7.62 2.75-2.38 2.75-2.38 3.75-5.38h3c0-.66 0-1.32 0-2 1.54-.89 1.54-.89 3.62-1.81 2.87-1.36 5.24-2.73 7.63-4.81 3.38-2.92 5.28-4.38 9.75-4.38.33-.99.66-1.98 1-3 4.66-4.1 9.77-5.69 15.8-6.64 8.99-1.47 8.99-1.47 10.2-1.36z" fill="#e2c13a" transform="translate(511 215)"/><path d="m0 0c2.34-.09 4.66-.11 7-.09.36 0 .36 0 2.19.01 7.6.06 15.21.27 22.81.52.7.02 1.41.04 2.13.07 7.3.23 14.59.48 21.87.99 5.35.36 10.7.61 16.06.75 1.48.04 2.96.08 4.44.13 2.98.08 5.96.16 8.94.23 1.37.03 2.75.07 4.12.11.62.01.62.01 3.76.09.44.03.44.03 2.68.19v1c-1.83.11-3.66.14-5.5.15-1.2 0-2.4.01-3.64.01-1.34.01-2.67.01-4.01.01-1.37 0-2.74 0-4.11.01-2.89 0-5.78.01-8.67.01-2.93 0-5.86 0-8.8.02-29.29.13-29.29.13-42.64-1.72-5.31-.72-10.63-.97-15.98-1.24-.88-.09-1.75-.17-2.65-.25 0-.33 0-.66 0-1z" fill="#fcf4b4" transform="translate(48 149)"/><path d="m0 0c-1.34.66-1.34.66-3.94 1.5-8.94 3.38-18.77 9.27-24.17 17.39-1.66 3.94-1.8 7.96-.89 12.11.96 1.36 1.96 2.7 3 4v2c7.36 1.18 13.08.17 19.26-3.91 1.74-1.09 1.74-1.09 3.74-1.09v2c-.99 0-1.98 0-3 0v2c-5.57 4.14-12.32 3.66-19 3-2.65-1.04-3.83-1.82-5.75-3.94-2.34-5.72-2.09-13.15-.25-19.06h3c0-.99 0-1.98 0-3h2c0-.66 0-1.32 0-2 1.66-1.02 3.32-2.02 5-3 .33-.66.66-1.32 1-2h4c0-.66 0-1.32 0-2 2.06-.94 2.06-.94 5-2 .59-.28.59-.28 3.56-1.69 4.36-1.66 4.36-1.66 7.44-.31z" fill="#e3c13c" transform="translate(544 153)"/><path d="m0 0h2c-2.66 9.05-10.96 17.22-18.83 22.14-12.57 6.83-27.29 7.46-41.17 4.86 0-.33 0-.66 0-1 1.87-.14 3.74-.2 5.62-.25.58-.01.58-.01 3.52-.1 2.48-.06 4.96-.11 7.44-.17 1.17-.03 2.34-.07 3.54-.1 1.08-.03 2.15-.05 3.27-.08 2.61-.3 2.61-.3 4.61-2.3 2.58-.58 5.17-.95 7.79-1.34.73-.22 1.46-.44 2.21-.66.17-.5.17-.5 1-3 1.15-.12 2.31-.25 3.5-.38 1.15-.2 2.31-.41 3.5-.62.75-2.5.75-2.5 1-5l3-1c1.56-2.38 1.56-2.38 3-5l2-3h3c0-.99 0-1.98 0-3z" fill="#fdf7bb" transform="translate(442 229)"/><path d="m0 0c1.23.01 2.45.01 3.71.02 1.11.05 2.21.11 3.35.17.8 0 1.6.01 2.42.01.52.33 1.04.65 1.58.99.4 2.79.51 5.14.44 7.93.01.75.01 1.49.02 2.25-.02 2.16-.02 2.16-.46 5.82-4.19 2.79-7.87 3.12-12.83 3.13-.88 0-1.76 0-2.67 0s-1.81 0-2.75-.01c-.92.01-1.84.01-2.79.01-.88 0-1.76 0-2.66 0-.8 0-1.6 0-2.43 0-1.87-.13-1.87-.13-2.87-1.13-.36-5.39-.39-8.57 3-13l2-2h3c0-.66 0-1.32 0-2 3.68-2.46 5.57-2.24 9.94-2.19zm-15.94 11.19c-.25 2.75-.25 2.75 1 5 5.42 3.95 10.53 3.73 17 3 3.36-.86 4.32-1.56 7-4 1.21-3.11 1.49-5.71 1-9-1.94-3.07-1.94-3.07-5-5-9-1.15-15.67 2.74-21 10z" fill="#fdf6c4" transform="translate(573.9375 96.8125)"/><path d="m0 0c14.34-1.33 30 .88 44.06 3.62 18.48 3.6 18.48 3.6 25.94-.62 1.32-.44 2.65-.84 4-1.19.66-.18 1.32-.36 2-.54 2.26-.31 3.91-.21 6 .73-1.4.94-1.4.94-3.94 2-.81.35-1.62.7-2.46 1.06-17.53 6.33-40.44.5-58.48-1.79-2.18-.28-4.36-.55-6.54-.81-1.39-.18-2.77-.35-4.16-.53-.62-.08-.62-.08-3.75-.47-.88-.15-1.76-.3-2.67-.46 0-.33 0-.66 0-1z" fill="#e0c241" transform="translate(340 238)"/><path d="m0 0c4.47-.81 8.75-.57 12.88 1.31.35.28.35.28 2.12 1.69.76.39 1.53.78 2.31 1.19 2.36 2.53 2.09 4.51 2.03 7.87-.34 1.94-.34 1.94-2.34 4.94-2.94.98-5.05 1.2-8.12 1.25-.45.01-.45.01-2.7.08-.72-.11-1.44-.22-2.18-.33-.33-.99-.66-1.98-1-3-.66-.16-1.32-.33-2-.5-.66-.16-1.32-.33-2-.5-.88-2.64-1.16-4.28-1.19-7-.01-.68-.03-1.36-.04-2.06.23-1.94.23-1.94 2.23-4.94zm-1 4c-.13 4.4 2.35 7.47 5.18 10.61 2.14 1.64 3.39 1.92 6.07 2.01 1.24-.2 2.48-.41 3.75-.62 2.33-3.5 2.59-4.89 2-9-3.39-4.04-6.92-4.59-11.91-5.12-2.09.12-2.09.12-5.09 2.12z" fill="#fbf5c2" transform="translate(600 193)"/><path d="m0 0c3.06 1.94 3.06 1.94 5 5 .49 3.29.21 5.9-1 9-4.92 4.48-9.66 4.44-16.13 4.43-3.36-.5-5.24-1.29-7.87-3.43-1.04-2.43-1.04-2.43-1-5 1.48-2.17 1.48-2.17 3.62-4.19.7-.67 1.39-1.35 2.11-2.04 4.61-3.59 9.53-4.85 15.27-3.77zm-14.19 5.56c-.6.81-1.19 1.61-1.81 2.44-.33.16-.33.16-2 1-.38 2.94-.38 2.94 0 6 2.8 2.56 6.31 2.3 9.97 2.18 3.04-.27 5.31-.76 8.03-2.18 1.97-3.94 2.5-7.63 2-12-5.69-3.79-11.82-2.56-16.19 2.56z" fill="#e1c448" transform="translate(579 98)"/><path d="m0 0c.25.19.25.19 1.5 1.17 3.31 2.42 6.52 2.7 10.48 3.18.78.11 1.55.21 2.35.32 2.47.33 4.95.64 7.42.95l4.95.66c3.05.41 6.1.81 9.15 1.2.68.08 1.36.17 2.06.26 1.47.18 2.93.35 4.4.51 1.9.22 3.8.48 5.69.75v1c-5.32.27-10.67.1-16 0-.51-.01-.51-.01-3.08-.05-3.27-.07-6.53-.16-9.8-.26-1.06-.02-2.12-.05-3.22-.07-1-.04-1.99-.07-3.02-.11-.89-.02-1.78-.05-2.7-.08-.36-.07-.36-.07-2.18-.43-.66-.99-1.32-1.98-2-3-.52-.15-.52-.15-3.12-.94-.95-.35-1.9-.7-2.88-1.06 0-1.32 0-2.64 0-4z" fill="#e5c12e" transform="translate(312 184)"/><path d="m0 0c2.31.5 2.31.5 6 2 1.71.69 3.42 1.38 5.12 2.06.83.34 1.66.69 2.51 1.04 7.82 2.98 16.18 3.12 23.93-.1.79-.37 1.57-.74 2.38-1.12 2.06-.88 2.06-.88 5.06-.88-2.56 3.71-5.94 5.19-10.09 6.47-8.21 1.5-19.79 2.28-26.91-2.47 0-.66 0-1.32 0-2-1.13-.12-2.27-.25-3.44-.38-1.17-.2-2.35-.41-3.56-.62-1.31-2.19-1.31-2.19-1-4z" fill="#fdf6c1" transform="translate(608 157)"/><path d="m0 0h3.77c10.85.05 10.85.05 14.85 1.19.17.33.17.33 1 2 2.31.6 4.62.95 6.97 1.34.67.22 1.34.43 2.03.66.17.49.17.49 1 3-1.88-.26-1.88-.26-4.68-1.13-1.02-.3-2.05-.59-3.1-.9-2.01-.61-4.02-1.22-6.02-1.85-12.55-3.6-24.69-3.13-37.11.54-4.82 1.42-4.82 1.42-8.09.34 7.04-6.95 20.32-5.28 29.38-5.19z" fill="#e2c23c" transform="translate(573.375 145.8125)"/><path d="m0 0c-1.43 1.12-1.43 1.12-3.88 2.44-.78.43-1.56.86-2.36 1.31-5.99 2.72-11.6 3.61-18.14 3.56-.39 0-.39 0-2.41 0-11.01-.18-22.4-1.2-33.21-3.31 0-.33 0-.66 0-1 1.83-.02 3.66.04 5.49.12 1.17.05 2.35.1 3.55.15 1.27.05 2.53.11 3.84.17 2.57.09 5.15.19 7.73.28 3.44.13 6.87.26 10.31.41 8.85.4 16.06.46 24.01-4.13 2.07-1 2.07-1 5.07 0z" fill="#e0c54d" transform="translate(416 178)"/></svg>